<?xml version="1.0" encoding="UTF-8" standalone="no"?>
<!DOCTYPE svg PUBLIC "-//W3C//DTD SVG 1.1//EN"
 "http://www.w3.org/Graphics/SVG/1.1/DTD/svg11.dtd">
<!-- Generated by graphviz version 2.38.0 (20140413.2041)
 -->
<!-- Title: g Pages: 1 -->
<svg width="505pt" height="76pt"
 viewBox="0.00 0.00 504.71 76.00" xmlns="http://www.w3.org/2000/svg" xmlns:xlink="http://www.w3.org/1999/xlink">
<g id="graph0" class="graph" transform="scale(1 1) rotate(0) translate(4 72)">
<title>g</title>
<polygon fill="white" stroke="none" points="-4,4 -4,-72 500.706,-72 500.706,4 -4,4"/>
<!-- Prototype -->
<g id="node1" class="node"><title>Prototype</title>
<ellipse fill="none" stroke="black" cx="44.4962" cy="-18" rx="44.4923" ry="18"/>
<text text-anchor="middle" x="44.4962" y="-13.8" font-family="Times,serif" font-size="14.00">Prototype</text>
</g>
<!-- Published -->
<g id="node2" class="node"><title>Published</title>
<ellipse fill="none" stroke="black" cx="176.985" cy="-18" rx="44.9855" ry="18"/>
<text text-anchor="middle" x="176.985" y="-13.8" font-family="Times,serif" font-size="14.00">Published</text>
</g>
<!-- Prototype&#45;&gt;Published -->
<g id="edge1" class="edge"><title>Prototype&#45;&gt;Published</title>
<path fill="none" stroke="black" d="M89.3101,-18C99.634,-18 110.763,-18 121.494,-18"/>
<polygon fill="black" stroke="black" points="121.62,-21.5001 131.62,-18 121.62,-14.5001 121.62,-21.5001"/>
<text text-anchor="middle" x="110.492" y="-20.8" font-family="Times,serif" font-size="14.00">1</text>
</g>
<!-- Published&#45;&gt;Published -->
<g id="edge2" class="edge"><title>Published&#45;&gt;Published</title>
<path fill="none" stroke="black" d="M165.202,-35.4099C163.003,-45.0879 166.93,-54 176.985,-54 183.269,-54 187.16,-50.5187 188.657,-45.5449"/>
<polygon fill="black" stroke="black" points="192.159,-45.4475 188.768,-35.4099 185.159,-45.3711 192.159,-45.4475"/>
<text text-anchor="middle" x="176.985" y="-56.8" font-family="Times,serif" font-size="14.00">2, 3</text>
</g>
<!-- Deprecated -->
<g id="node3" class="node"><title>Deprecated</title>
<ellipse fill="none" stroke="black" cx="315.342" cy="-18" rx="50.2293" ry="18"/>
<text text-anchor="middle" x="315.342" y="-13.8" font-family="Times,serif" font-size="14.00">Deprecated</text>
</g>
<!-- Published&#45;&gt;Deprecated -->
<g id="edge3" class="edge"><title>Published&#45;&gt;Deprecated</title>
<path fill="none" stroke="black" d="M222.256,-18C232.51,-18 243.59,-18 254.391,-18"/>
<polygon fill="black" stroke="black" points="254.624,-21.5001 264.624,-18 254.624,-14.5001 254.624,-21.5001"/>
<text text-anchor="middle" x="243.478" y="-20.8" font-family="Times,serif" font-size="14.00">4</text>
</g>
<!-- Removed -->
<g id="node4" class="node"><title>Removed</title>
<ellipse fill="none" stroke="black" cx="452.706" cy="-18" rx="43.9992" ry="18"/>
<text text-anchor="middle" x="452.706" y="-13.8" font-family="Times,serif" font-size="14.00">Removed</text>
</g>
<!-- Deprecated&#45;&gt;Removed -->
<g id="edge4" class="edge"><title>Deprecated&#45;&gt;Removed</title>
<path fill="none" stroke="black" d="M365.978,-18C376.499,-18 387.648,-18 398.303,-18"/>
<polygon fill="black" stroke="black" points="398.329,-21.5001 408.329,-18 398.329,-14.5001 398.329,-21.5001"/>
<text text-anchor="middle" x="387.207" y="-20.8" font-family="Times,serif" font-size="14.00">5</text>
</g>
</g>
</svg>
